# xmcd CD database file generated by OrangeCD 5.2
#
# Track frame offsets:
#	150
#	12443
#	25054
#	38138
#	50705
#	65075
#	79778
#	92368
#	104540
#	117142
#	129307
#	143401
#	156721
#	169535
#	181692
#	196105
#	210564
#	224559
#	238831
#	252730
#	264664
#
# Disc length: 3693 seconds
#
# Revision: 0
# Processed by: cddbd v1.5.1PL0 Copyright (c) Steve Scherf et al.
# Submitted via: OrangeCD 5.2
#
DISCID=2b0e6b15
DTITLE=Big Joe Williams - Baby Please Don't Go
DYEAR=2004
DGENRE=
TTITLE0=Band And Weakhearted Blues
TTITLE1=I'm Getting Wild About Her
TTITLE2=North Wind Blows
TTITLE3=Baby Please Don't Go
TTITLE4=My Grey Pony
TTITLE5=Wild Cow Blues
TTITLE6=Vitamin A
TTITLE7=Peach Orchard Mama
TTITLE8=Jivin' Woman
TTITLE9=Throw A Boogie Woogie
TTITLE10=Little Leg Woman
TTITLE11=House Lady Blues
TTITLE12=Crawlin' King Snake
TTITLE13=She's A Married Woman
TTITLE14=Stack O Dollars
TTITLE15=Break 'Em On Down
TTITLE16=Providence Help The Poor People
TTITLE17=Someday Baby
TTITLE18=Sombody's Been Borrowing That Stuff
TTITLE19=Worried Man Blues
TTITLE20=His Spirit Lives On
EXTD=
EXTT0=
EXTT1=
EXTT2=
EXTT3=
EXTT4=
EXTT5=
EXTT6=
EXTT7=
EXTT8=
EXTT9=
EXTT10=
EXTT11=
EXTT12=
EXTT13=
EXTT14=
EXTT15=
EXTT16=
EXTT17=
EXTT18=
EXTT19=
EXTT20=
PLAYORDER=
